<svg width="32" height="33" viewBox="0 0 32 33" fill="none" xmlns="http://www.w3.org/2000/svg">
<path d="M15.9998 3.16663C13.3628 3.16663 10.7849 3.94861 8.59224 5.4137C6.39958 6.87878 4.69062 8.96116 3.68145 11.3975C2.67228 13.8339 2.40824 16.5148 2.92271 19.1012C3.43718 21.6876 4.70705 24.0634 6.57175 25.9281C8.43645 27.7928 10.8122 29.0626 13.3986 29.5771C15.9851 30.0916 18.6659 29.8275 21.1023 28.8184C23.5386 27.8092 25.621 26.1002 27.0861 23.9076C28.5512 21.7149 29.3332 19.137 29.3332 16.5C29.3332 14.749 28.9883 13.0152 28.3182 11.3975C27.6482 9.77984 26.666 8.30998 25.4279 7.07187C24.1898 5.83375 22.72 4.85163 21.1023 4.18157C19.4846 3.5115 17.7508 3.16663 15.9998 3.16663ZM22.2798 14.78L15.6132 21.4466C15.4892 21.5716 15.3418 21.6708 15.1793 21.7385C15.0168 21.8062 14.8425 21.841 14.6665 21.841C14.4905 21.841 14.3162 21.8062 14.1537 21.7385C13.9913 21.6708 13.8438 21.5716 13.7198 21.4466L9.71984 17.4466C9.59552 17.3223 9.49691 17.1747 9.42963 17.0123C9.36235 16.8499 9.32772 16.6758 9.32772 16.5C9.32772 16.1449 9.46877 15.8044 9.71984 15.5533C9.97091 15.3022 10.3114 15.1612 10.6665 15.1612C11.0216 15.1612 11.3621 15.3022 11.6132 15.5533L14.6665 18.62L20.3865 12.8866C20.6376 12.6356 20.9781 12.4945 21.3332 12.4945C21.6882 12.4945 22.0288 12.6356 22.2798 12.8866C22.5309 13.1377 22.672 13.4782 22.672 13.8333C22.672 14.1884 22.5309 14.5289 22.2798 14.78Z" fill="#28A745"/>
</svg>
