<svg width="24" height="24" viewBox="0 0 24 24" fill="none" xmlns="http://www.w3.org/2000/svg">
<path fill-rule="evenodd" clip-rule="evenodd" d="M7.67 1.99915H16.34C19.73 1.99915 22 4.37915 22 7.91915V16.0901C22 19.6201 19.73 21.9991 16.34 21.9991H7.67C4.28 21.9991 2 19.6201 2 16.0901V7.91915C2 4.37915 4.28 1.99915 7.67 1.99915ZM15.01 14.9991C15.35 14.6601 15.35 14.1101 15.01 13.7701L13.23 11.9901L15.01 10.2091C15.35 9.87015 15.35 9.31015 15.01 8.97015C14.67 8.62915 14.12 8.62915 13.77 8.97015L12 10.7491L10.22 8.97015C9.87 8.62915 9.32 8.62915 8.98 8.97015C8.64 9.31015 8.64 9.87015 8.98 10.2091L10.76 11.9901L8.98 13.7601C8.64 14.1101 8.64 14.6601 8.98 14.9991C9.15 15.1691 9.38 15.2601 9.6 15.2601C9.83 15.2601 10.05 15.1691 10.22 14.9991L12 13.2301L13.78 14.9991C13.95 15.1801 14.17 15.2601 14.39 15.2601C14.62 15.2601 14.84 15.1691 15.01 14.9991Z" fill="#130F26"/>
</svg>
